<?xml version="1.0" encoding="UTF-8"?>
<svg xmlns="http://www.w3.org/2000/svg" xmlns:xlink="http://www.w3.org/1999/xlink" width="2rem" height="0px" viewBox="0 0 600 600" version="1.1">
<g id="surface1">
<path style=" stroke:transparent;stroke-width: 0px;fill-rule:transparent;fill:rgb(0%,0%,0%);fill-opacity:0;" d="M 288 600.5 C 192.75 600.5 97.75 600.492188 2.75 600.546875 C 0.875 600.546875 0.453125 600.125 0.453125 598.25 C 0.503906 399.75 0.503906 201.25 0.453125 2.75 C 0.453125 0.875 0.875 0.453125 2.75 0.453125 C 201.25 0.503906 399.75 0.503906 598.25 0.453125 C 600.125 0.453125 600.546875 0.875 600.546875 2.75 C 600.496094 201.25 600.496094 399.75 600.546875 598.25 C 600.546875 600.125 600.125 600.546875 598.25 600.546875 C 494.917969 600.492188 391.582031 600.5 288 600.5 Z M 288 600.5 "/>
<path style=" stroke:transparent;fill-rule:nonzero;fill:rgb(100%,100%,100%);fill-opacity:1;" d="M 286.171875 437.625 C 279.972656 441.769531 273.402344 444.824219 266.894531 447.988281 C 265.453125 448.691406 263.90625 449.207031 262.535156 450.023438 C 259.761719 451.671875 257.179688 451.882812 254.113281 450.414062 C 244.242188 445.691406 234.480469 440.804688 225.203125 434.972656 C 215.855469 429.097656 207.082031 422.46875 198.601562 415.410156 C 192.617188 410.433594 186.8125 405.261719 181.511719 399.59375 C 179.175781 397.097656 176.453125 394.882812 174.636719 391.902344 C 173.933594 390.75 172.800781 391 171.746094 391 C 144.910156 391 118.078125 391 91.246094 391 C 90.363281 391 89.480469 391 88.175781 391 C 91.609375 386.011719 94.800781 381.398438 97.976562 376.769531 C 102.308594 370.449219 106.582031 364.085938 110.984375 357.816406 C 111.972656 356.410156 112.066406 355.460938 111.039062 353.992188 C 103.726562 343.546875 96.519531 333.03125 89.292969 322.527344 C 88.941406 322.015625 88.746094 321.40625 88.453125 320.789062 C 89.417969 320.261719 90.335938 320.515625 91.199219 320.515625 C 104.785156 320.492188 118.367188 320.488281 131.949219 320.515625 C 133.535156 320.519531 134.082031 320.578125 133.628906 318.429688 C 132.148438 311.464844 131.417969 304.402344 131.445312 297.222656 C 131.570312 265.640625 131.542969 234.054688 131.460938 202.472656 C 131.445312 196.417969 133.597656 191.246094 137.171875 186.625 C 144.957031 176.5625 155.578125 170.429688 167.027344 165.480469 C 176.035156 161.585938 185.320312 158.570312 194.871094 156.316406 C 201.316406 154.792969 207.804688 153.511719 214.347656 152.476562 C 222.183594 151.238281 230.039062 150.363281 237.964844 149.878906 C 240.925781 149.699219 243.890625 149.496094 246.847656 149.539062 C 251.160156 149.601562 255.417969 148.589844 259.726562 149.011719 C 265.09375 149.542969 270.503906 149.140625 275.847656 149.582031 C 285.339844 150.367188 294.8125 151.320312 304.238281 152.894531 C 318.984375 155.359375 333.386719 158.957031 347.1875 164.632812 C 357.949219 169.058594 368.15625 174.613281 376.109375 183.410156 C 381.289062 189.136719 384.730469 195.625 384.550781 203.730469 C 384.335938 213.222656 384.5 222.722656 384.5 232.289062 C 375.285156 230.0625 366.796875 231.894531 359.273438 237.167969 C 352.554688 241.878906 348.253906 248.429688 346.976562 256.761719 C 346.3125 261.089844 346.035156 265.371094 347.367188 269.621094 C 347.558594 270.226562 347.394531 270.632812 347.089844 271.1875 C 344.015625 276.835938 341.023438 282.527344 337.960938 288.179688 C 337.628906 288.792969 337.570312 289.492188 336.121094 289.175781 C 330.117188 287.871094 324.019531 286.996094 317.945312 286.015625 C 316.53125 285.789062 315.585938 284.949219 314.726562 283.960938 C 310.839844 279.476562 306.191406 276.191406 300.453125 274.476562 C 289.472656 271.195312 279.679688 273.390625 271.007812 280.761719 C 262.574219 287.929688 259.628906 297.300781 260.558594 308.019531 C 260.90625 312.035156 262.355469 315.816406 264.410156 319.351562 C 264.914062 320.21875 265.390625 320.511719 266.304688 320.507812 C 276.613281 320.492188 286.921875 320.5 297.671875 320.5 C 296.539062 319.40625 296.1875 318.609375 294.386719 318.886719 C 283.007812 320.632812 275.976562 312.933594 276.046875 303.523438 C 276.105469 295.847656 282.757812 288.921875 290.621094 288.929688 C 297.496094 288.933594 302.359375 291.777344 305.09375 297.941406 C 306.019531 300.03125 307.65625 300.175781 309.234375 300.449219 C 318.3125 302.023438 327.378906 303.65625 336.425781 305.40625 C 339.109375 305.929688 341.835938 306.375 344.546875 306.832031 C 345.800781 307.042969 346.089844 306.203125 346.492188 305.457031 C 350.832031 297.378906 355.128906 289.28125 359.492188 281.214844 C 360.941406 278.53125 362.183594 275.730469 363.941406 273.207031 C 364.652344 272.1875 364.828125 271.210938 364.039062 269.855469 C 358.5625 260.417969 364.75 249.03125 374.820312 247.421875 C 382.402344 246.214844 388.171875 250.238281 390.863281 255.40625 C 393.691406 260.84375 393.960938 267.117188 388.828125 272.011719 C 384.984375 275.679688 386.363281 279.121094 386.707031 282.839844 C 387.101562 287.117188 387.871094 291.363281 388.503906 295.621094 C 389.160156 300.035156 389.5625 304.484375 390.390625 308.882812 C 390.699219 310.53125 390.792969 312.277344 390.976562 313.980469 C 391.082031 314.996094 391.484375 315.347656 392.492188 315.527344 C 401.5625 317.144531 410.589844 319.023438 419.695312 320.398438 C 423.441406 320.964844 427.355469 320.644531 431.175781 320.40625 C 432.300781 320.335938 433.347656 319.152344 434.449219 318.507812 C 440.515625 314.953125 447.128906 315.292969 452.570312 319.902344 C 453.488281 320.675781 454.417969 320.484375 455.363281 320.488281 C 473.449219 320.503906 491.53125 320.5 509.613281 320.5 C 510.523438 320.5 511.433594 320.5 512.851562 320.5 C 510.804688 323.582031 508.996094 326.386719 507.105469 329.136719 C 501.523438 337.246094 495.929688 345.347656 490.300781 353.421875 C 489.191406 355.011719 488.863281 356.179688 490.195312 358.070312 C 497.746094 368.816406 505.082031 379.714844 512.582031 390.695312 C 511.695312 391.21875 510.78125 390.988281 509.9375 390.988281 C 474.6875 391.003906 439.441406 391 404.191406 391 C 401.363281 391 401.566406 390.976562 401.921875 393.925781 C 402.230469 396.511719 402.640625 399.082031 402.953125 401.664062 C 403.089844 402.808594 403.304688 403.425781 404.4375 404.039062 C 412.15625 408.203125 414.335938 415.785156 411.453125 423.742188 C 409.613281 428.8125 403.734375 432.457031 398.84375 432.5625 C 394.867188 432.648438 391.234375 432.046875 388.09375 429.503906 C 384.820312 426.851562 382.71875 423.519531 382.515625 419.214844 C 382.386719 416.519531 382.304688 413.777344 383.59375 411.300781 C 384.097656 410.335938 383.355469 410.144531 382.980469 409.753906 C 377.332031 403.902344 371.648438 398.082031 366.011719 392.222656 C 365.148438 391.328125 364.269531 390.953125 362.992188 390.964844 C 355.324219 391.035156 347.652344 391.167969 339.992188 390.925781 C 336.574219 390.816406 333.589844 391.726562 330.652344 393.15625 C 327.464844 394.710938 324.394531 396.515625 321.140625 397.902344 C 319.691406 398.523438 319.222656 399.511719 319.03125 400.730469 C 317.695312 409.3125 312.183594 412.378906 306.664062 413.417969 C 299.988281 414.675781 293.429688 411.214844 290.496094 405.371094 C 288.167969 400.726562 288.492188 395.984375 290.667969 391 C 285.289062 391 280.164062 391.023438 275.039062 390.980469 C 274.085938 390.972656 274.070312 391.464844 273.929688 392.171875 C 273.320312 395.28125 272.949219 398.300781 273.367188 401.570312 C 273.867188 405.488281 274.761719 409.25 276.585938 412.617188 C 281.027344 420.828125 287.789062 426.300781 297 428.507812 C 297.621094 428.65625 298.742188 428.929688 298.734375 429.113281 C 298.707031 429.863281 297.957031 430.136719 297.34375 430.554688 C 293.742188 432.992188 290.226562 435.554688 286.171875 437.625 Z M 286.171875 437.625 "/>
<path style=" stroke:transparent;fill-rule:nonzero;fill:rgb(3.137255%,3.137255%,3.137255%);fill-opacity:1;" d="M 132.203125 330.992188 C 138.265625 330.992188 144.097656 330.980469 149.925781 330.996094 C 156.847656 331.015625 161.421875 334.53125 163.222656 341.175781 C 166.628906 353.75 157.90625 369.917969 145.726562 373.621094 C 144.125 374.109375 142.496094 374.476562 140.832031 374.484375 C 134.167969 374.527344 127.503906 374.515625 120.839844 374.484375 C 120.316406 374.480469 119.398438 374.933594 119.34375 373.875 C 119.292969 372.898438 119.808594 372.523438 120.878906 372.457031 C 126.074219 372.132812 126.042969 372.082031 127.40625 367.015625 C 130.152344 356.804688 132.933594 346.601562 135.707031 336.398438 C 136.625 333.011719 136.632812 333.011719 133.046875 333.007812 C 132.226562 333.007812 131.402344 333.007812 130.535156 333.007812 C 130.640625 331.898438 130.605469 330.910156 132.203125 330.992188 Z M 132.203125 330.992188 "/>
<path style=" stroke:transparent;fill-rule:nonzero;fill:rgb(3.137255%,3.137255%,3.137255%);fill-opacity:1;" d="M 382.117188 359.113281 C 379.769531 364.140625 376.472656 368.125 372.011719 371.132812 C 368.675781 373.378906 364.988281 374.484375 360.984375 374.5 C 354.746094 374.527344 348.503906 374.535156 342.261719 374.464844 C 341.644531 374.460938 340.441406 375.242188 340.359375 373.800781 C 340.273438 372.277344 341.464844 372.476562 342.453125 372.492188 C 343.203125 372.5 343.957031 372.4375 344.699219 372.503906 C 346.339844 372.652344 347.089844 371.828125 347.496094 370.324219 C 350.636719 358.679688 353.789062 347.039062 357.003906 335.417969 C 357.550781 333.449219 356.953125 332.820312 355.023438 332.988281 C 353.878906 333.089844 352.71875 333.007812 351.582031 333.007812 C 351.496094 331.449219 352.070312 330.949219 353.488281 330.964844 C 359.644531 331.03125 365.804688 330.898438 371.960938 331.023438 C 377.875 331.140625 382.292969 334.652344 384.015625 340.46875 C 385.90625 346.851562 384.796875 352.980469 382.117188 359.113281 Z M 382.117188 359.113281 "/>
<path style=" stroke:transparent;fill-rule:nonzero;fill:rgb(3.137255%,3.137255%,3.137255%);fill-opacity:1;" d="M 427.773438 332.574219 C 427.867188 331.375 428.308594 330.960938 429.382812 330.96875 C 435.125 331.019531 440.867188 330.992188 446.609375 330.992188 C 447.039062 332.632812 446.375 333.019531 444.90625 333.039062 C 441.738281 333.085938 440.894531 334.472656 442.191406 337.335938 C 443.941406 341.195312 445.742188 345.035156 447.714844 349.308594 C 449.460938 347.402344 451.046875 345.675781 452.625 343.945312 C 454.195312 342.222656 455.820312 340.542969 457.304688 338.75 C 458.386719 337.441406 458.609375 335.828125 457.917969 334.277344 C 457.304688 332.898438 455.921875 333.0625 454.667969 332.96875 C 454.121094 332.929688 452.992188 333.609375 453.097656 332.179688 C 453.167969 331.265625 453.691406 330.96875 454.609375 330.976562 C 460.023438 331.011719 465.4375 330.984375 470.851562 331.007812 C 471.320312 331.011719 472.15625 330.65625 472.074219 331.6875 C 472.019531 332.367188 471.867188 333.109375 470.941406 332.992188 C 465.242188 332.265625 462.199219 336.117188 459.003906 339.804688 C 456.007812 343.265625 452.941406 346.667969 449.820312 350.015625 C 448.878906 351.027344 448.773438 351.824219 449.371094 353.070312 C 451.820312 358.171875 454.296875 363.269531 456.46875 368.488281 C 457.683594 371.410156 459.296875 373.046875 462.625 372.539062 C 463.160156 372.457031 464.265625 371.945312 464.378906 373.109375 C 464.496094 374.292969 463.683594 374.539062 462.589844 374.527344 C 457.179688 374.480469 451.765625 374.523438 446.351562 374.484375 C 445.839844 374.480469 444.878906 374.976562 444.929688 373.761719 C 444.964844 372.875 445.398438 372.371094 446.359375 372.492188 C 446.441406 372.503906 446.527344 372.496094 446.609375 372.492188 C 452.335938 372.132812 452.355469 372.105469 449.914062 366.796875 C 448.253906 363.183594 446.585938 359.574219 444.765625 355.625 C 441.222656 359.539062 437.71875 363.089844 434.609375 366.960938 C 432.253906 369.898438 433.582031 372.214844 437.410156 372.511719 C 437.863281 372.546875 438.714844 372.085938 438.660156 373.105469 C 438.617188 373.859375 438.421875 374.53125 437.347656 374.523438 C 431.277344 374.488281 425.207031 374.503906 419.152344 374.503906 C 419.050781 372.972656 419.574219 372.316406 421.019531 372.484375 C 424.773438 372.910156 427.59375 371.140625 430.015625 368.535156 C 434.265625 363.960938 438.464844 359.335938 442.765625 354.8125 C 443.6875 353.84375 443.699219 353.113281 443.171875 351.980469 C 440.824219 346.921875 438.445312 341.875 436.332031 336.714844 C 435.183594 333.910156 433.515625 332.574219 430.457031 332.976562 C 429.582031 333.09375 428.628906 333.210938 427.773438 332.574219 Z M 427.773438 332.574219 "/>
<path style=" stroke:none;fill-rule:nonzero;fill:rgb(4.313725%,4.313725%,4.313725%);fill-opacity:1;" d="M 342.707031 333.015625 C 338.976562 333.757812 337.929688 336.578125 337.121094 339.527344 C 334.042969 350.773438 331.007812 362.03125 327.941406 373.28125 C 327.75 373.984375 327.628906 375.023438 327.144531 375.273438 C 325.8125 375.96875 324.980469 375.433594 324.4375 373.882812 C 320.503906 362.644531 316.476562 351.4375 312.464844 340.226562 C 312.167969 339.402344 312.054688 338.457031 311.09375 337.636719 C 308.855469 345.78125 306.667969 353.710938 304.503906 361.644531 C 303.910156 363.8125 303.214844 365.972656 302.859375 368.179688 C 302.335938 371.394531 303.339844 372.386719 306.574219 372.53125 C 307.207031 372.558594 308.414062 371.753906 308.5 373.203125 C 308.574219 374.472656 307.617188 374.53125 306.609375 374.523438 C 302.195312 374.492188 297.777344 374.523438 293.363281 374.488281 C 292.90625 374.484375 292.050781 374.894531 292.066406 373.898438 C 292.082031 373.128906 292.304688 372.367188 293.367188 372.492188 C 298.53125 373.09375 300.089844 369.691406 301.183594 365.601562 C 303.851562 355.625 306.5625 345.660156 309.351562 335.71875 C 309.953125 333.574219 309.449219 332.746094 307.207031 332.992188 C 306.300781 333.09375 305.371094 333.058594 304.460938 332.992188 C 304.003906 332.957031 303.140625 333.355469 303.320312 332.261719 C 303.429688 331.582031 303.546875 330.972656 304.488281 330.980469 C 307.570312 331.015625 310.65625 330.992188 313.738281 330.992188 C 315.082031 330.992188 314.960938 332.183594 315.242188 332.953125 C 318.945312 343.214844 322.617188 353.488281 326.296875 363.757812 C 326.574219 364.53125 326.886719 365.289062 327.191406 366.078125 C 328.0625 365.578125 327.976562 364.730469 328.167969 364.042969 C 330.460938 355.777344 332.730469 347.503906 334.988281 339.230469 C 335.230469 338.347656 335.445312 337.441406 335.503906 336.539062 C 335.671875 333.929688 334.691406 333.113281 331.660156 332.972656 C 331.003906 332.945312 329.804688 333.679688 329.707031 332.34375 C 329.601562 330.925781 330.730469 330.96875 331.789062 330.976562 C 335.953125 331.007812 340.121094 330.953125 344.285156 331.027344 C 344.894531 331.039062 346.078125 330.3125 346.105469 331.785156 C 346.128906 333.164062 345.09375 333.035156 344.167969 333.011719 C 343.75 333.003906 343.335938 333.011719 342.707031 333.015625 Z M 342.707031 333.015625 "/>
<path style=" stroke:none;fill-rule:nonzero;fill:rgb(3.529412%,3.529412%,3.529412%);fill-opacity:1;" d="M 193.617188 360.210938 C 193.324219 361.046875 193.496094 362.1875 192.390625 361.933594 C 191.410156 361.707031 192.140625 360.828125 192.140625 360.253906 C 192.136719 359.425781 192.332031 358.597656 192.335938 357.769531 C 192.363281 354.058594 191.320312 353.015625 187.640625 353.007812 C 182.371094 352.996094 182.375 353 181.015625 357.992188 C 179.898438 362.09375 178.796875 366.195312 177.628906 370.277344 C 177.15625 371.929688 177.605469 372.558594 179.371094 372.519531 C 183.035156 372.433594 186.703125 372.570312 190.367188 372.46875 C 194.214844 372.363281 197.160156 370.488281 199.398438 367.429688 C 201.28125 364.859375 202.652344 362.011719 203.851562 359.074219 C 204.085938 358.507812 204.351562 357.851562 205.058594 358.183594 C 205.65625 358.460938 205.199219 359.066406 205.066406 359.5 C 203.667969 364.035156 202.226562 368.558594 200.855469 373.101562 C 200.546875 374.125 200.09375 374.539062 198.953125 374.535156 C 188.121094 374.488281 177.289062 374.515625 166.457031 374.488281 C 165.941406 374.484375 164.992188 374.933594 165.078125 373.742188 C 165.144531 372.871094 165.582031 372.542969 166.53125 372.460938 C 171.804688 371.992188 171.785156 371.953125 173.164062 366.851562 C 175.953125 356.5625 178.765625 346.277344 181.558594 335.992188 C 182.367188 333.023438 182.351562 333.019531 179.375 333.007812 C 178.710938 333.003906 178.039062 333.042969 177.375 332.996094 C 176.960938 332.964844 176.253906 333.226562 176.324219 332.421875 C 176.371094 331.898438 176.300781 331.183594 177.082031 331.035156 C 177.40625 330.972656 177.746094 330.992188 178.082031 330.992188 C 188.65625 330.992188 199.230469 330.992188 210.140625 330.992188 C 209.25 335.433594 208.394531 339.707031 207.542969 343.980469 C 207.4375 344.515625 207.230469 344.964844 206.59375 344.875 C 205.835938 344.761719 206.117188 344.140625 206.125 343.703125 C 206.164062 341.703125 206.238281 339.699219 205.773438 337.730469 C 205.035156 334.59375 203.160156 333.0625 199.921875 333.019531 C 196.589844 332.972656 193.253906 333.058594 189.921875 332.984375 C 188.417969 332.953125 187.582031 333.570312 187.203125 334.980469 C 186.320312 338.277344 185.417969 341.570312 184.527344 344.867188 C 184.007812 346.789062 183.496094 348.710938 182.898438 350.945312 C 185.691406 350.945312 188.347656 351.238281 190.902344 350.871094 C 193.996094 350.425781 195.230469 347.855469 196.21875 345.15625 C 196.558594 344.230469 196.28125 342.289062 197.804688 342.691406 C 198.699219 342.929688 197.75 344.566406 197.507812 345.519531 C 196.277344 350.363281 194.953125 355.183594 193.617188 360.210938 Z M 193.617188 360.210938 "/>
<path style=" stroke:none;fill-rule:nonzero;fill:rgb(3.529412%,3.529412%,3.529412%);fill-opacity:1;" d="M 266.40625 353.84375 C 264.878906 359.433594 263.457031 364.828125 261.910156 370.1875 C 261.371094 372.046875 261.953125 372.566406 263.765625 372.515625 C 267.09375 372.429688 270.429688 372.460938 273.757812 372.5 C 277.914062 372.550781 281.132812 370.804688 283.574219 367.519531 C 285.425781 365.027344 286.773438 362.265625 287.96875 359.414062 C 288.203125 358.851562 288.332031 357.835938 289.1875 358.195312 C 290.027344 358.550781 289.351562 359.359375 289.175781 359.925781 C 287.832031 364.304688 286.421875 368.660156 285.109375 373.046875 C 284.804688 374.066406 284.417969 374.539062 283.253906 374.535156 C 272.339844 374.488281 261.425781 374.515625 250.515625 374.484375 C 250.085938 374.484375 249.183594 374.910156 249.339844 373.804688 C 249.433594 373.160156 249.476562 372.417969 250.453125 372.496094 C 250.621094 372.507812 250.789062 372.5 250.953125 372.492188 C 256.046875 372.15625 256.023438 372.148438 257.359375 367.183594 C 260.132812 356.894531 262.933594 346.613281 265.726562 336.328125 C 266.625 333.011719 266.628906 333.011719 263.21875 333.007812 C 262.71875 333.007812 262.214844 333.054688 261.722656 332.992188 C 261.246094 332.933594 260.402344 333.3125 260.566406 332.261719 C 260.652344 331.703125 260.714844 331.046875 261.507812 331.003906 C 262.007812 330.976562 262.507812 330.992188 263.007812 330.992188 C 272.753906 330.992188 282.5 330.988281 292.246094 330.996094 C 292.902344 330.996094 293.558594 331.054688 294.371094 331.09375 C 293.527344 335.359375 292.710938 339.5 291.871094 343.636719 C 291.761719 344.171875 291.769531 344.941406 290.949219 344.878906 C 289.996094 344.808594 290.417969 344.015625 290.417969 343.515625 C 290.417969 341.597656 290.46875 339.683594 290.035156 337.796875 C 289.3125 334.652344 287.457031 333.074219 284.238281 333.023438 C 280.90625 332.96875 277.574219 333.066406 274.242188 332.984375 C 272.621094 332.945312 271.816406 333.621094 271.414062 335.144531 C 270.164062 339.894531 268.886719 344.636719 267.523438 349.359375 C 267.109375 350.789062 267.546875 351.160156 268.886719 351 C 269.378906 350.941406 269.882812 350.992188 270.382812 350.992188 C 277.882812 350.992188 278.230469 350.753906 280.871094 343.753906 C 281.097656 343.152344 281.136719 342.238281 282.074219 342.558594 C 282.9375 342.859375 282.265625 343.558594 282.144531 344.03125 C 280.703125 349.589844 279.230469 355.144531 277.75 360.695312 C 277.59375 361.285156 277.601562 362.214844 276.609375 361.949219 C 275.722656 361.714844 276.355469 361.003906 276.363281 360.503906 C 276.371094 360.089844 276.472656 359.675781 276.507812 359.261719 C 276.960938 354.152344 275.929688 352.945312 270.886719 353.046875 C 269.417969 353.074219 267.789062 352.375 266.40625 353.84375 Z M 266.40625 353.84375 "/>
<path style=" stroke:none;fill-rule:nonzero;fill:rgb(3.137255%,3.137255%,3.137255%);fill-opacity:1;" d="M 239.5 330.992188 C 244.070312 330.992188 248.390625 330.992188 252.890625 330.992188 C 252.023438 335.359375 251.207031 339.503906 250.367188 343.640625 C 250.261719 344.175781 250.265625 344.945312 249.445312 344.878906 C 248.496094 344.800781 248.917969 344.007812 248.917969 343.507812 C 248.917969 341.59375 248.96875 339.675781 248.535156 337.789062 C 247.8125 334.648438 245.953125 333.070312 242.734375 333.019531 C 239.402344 332.96875 236.066406 333.066406 232.734375 332.984375 C 231.109375 332.941406 230.3125 333.628906 229.910156 335.152344 C 228.660156 339.902344 227.382812 344.648438 226.019531 349.367188 C 225.597656 350.820312 226.078125 351.125 227.394531 351.007812 C 228.304688 350.925781 229.230469 350.921875 230.140625 351.003906 C 236.320312 351.546875 237.804688 348.621094 239.101562 344.40625 C 239.199219 344.089844 239.328125 343.777344 239.394531 343.453125 C 239.523438 342.796875 239.824219 342.273438 240.554688 342.566406 C 241.257812 342.84375 240.757812 343.421875 240.648438 343.839844 C 239.492188 348.269531 238.3125 352.695312 237.136719 357.121094 C 236.792969 358.410156 236.429688 359.691406 236.113281 360.984375 C 235.964844 361.609375 235.777344 362.1875 235.003906 361.949219 C 234.289062 361.730469 234.675781 361.128906 234.753906 360.695312 C 235.015625 359.210938 235.1875 357.722656 234.953125 356.222656 C 234.625 354.148438 233.558594 353.019531 231.277344 352.980469 C 225.179688 352.875 225.179688 352.816406 223.539062 358.796875 C 222.507812 362.574219 221.535156 366.367188 220.425781 370.117188 C 219.914062 371.855469 220.246094 372.652344 222.191406 372.511719 C 223.519531 372.414062 224.867188 372.40625 226.1875 372.53125 C 226.816406 372.589844 228.011719 371.816406 228.007812 373.308594 C 228.003906 374.691406 226.933594 374.511719 226.019531 374.507812 C 223.769531 374.503906 221.519531 374.507812 219.273438 374.507812 C 215.855469 374.507812 212.441406 374.527344 209.023438 374.484375 C 208.59375 374.476562 207.695312 374.910156 207.839844 373.8125 C 207.925781 373.171875 207.964844 372.417969 208.945312 372.496094 C 209.113281 372.511719 209.28125 372.503906 209.445312 372.492188 C 214.546875 372.152344 214.523438 372.144531 215.859375 367.191406 C 218.632812 356.902344 221.433594 346.617188 224.226562 336.332031 C 225.125 333.011719 225.132812 333.011719 221.722656 333.007812 C 221.390625 333.007812 221.027344 333.09375 220.730469 332.988281 C 220.160156 332.78125 219.074219 333.601562 219.070312 332.261719 C 219.070312 331.191406 219.765625 330.964844 220.753906 330.972656 C 225.503906 331.015625 230.253906 330.992188 235 330.992188 C 236.417969 330.992188 237.832031 330.992188 239.5 330.992188 Z M 239.5 330.992188 "/>
<path style=" stroke:transparent;fill-rule:nonzero;fill:rgb(0%,0%,0%);fill-opacity:1;" d="M 415.832031 381.597656 C 416.261719 383.550781 415.402344 384.054688 413.589844 384.039062 C 404.511719 383.957031 395.433594 384.019531 386.355469 383.960938 C 385.683594 383.957031 384.398438 384.765625 384.316406 383.195312 C 384.234375 381.582031 385.316406 381.46875 386.632812 381.476562 C 396.292969 381.523438 405.953125 381.507812 415.832031 381.597656 Z M 415.832031 381.597656 "/>
<path style=" stroke:none;fill-rule:nonzero;fill:rgb(98.823529%,98.823529%,98.823529%);fill-opacity:1;" d="M 141.335938 372.492188 C 138.527344 372.496094 135.949219 372.464844 133.371094 372.507812 C 131.941406 372.53125 131.40625 372.074219 131.820312 370.566406 C 135.085938 358.621094 138.304688 346.664062 141.550781 334.710938 C 141.875 333.519531 142.652344 332.957031 143.9375 332.992188 C 146.097656 333.046875 148.265625 332.917969 150.421875 333.039062 C 153.613281 333.222656 155.84375 334.84375 157.101562 337.828125 C 158.335938 340.765625 158.355469 343.824219 158.125 346.90625 C 157.554688 354.488281 155.929688 361.722656 150.796875 367.691406 C 148.375 370.507812 145.371094 372.289062 141.335938 372.492188 Z M 141.335938 372.492188 "/>
<path style=" stroke:transparent;fill-rule:nonzero;fill:rgb(98.823529%,98.823529%,98.823529%);fill-opacity:1;" d="M 356.8125 355.828125 C 358.6875 348.972656 360.558594 342.328125 362.273438 335.644531 C 362.773438 333.699219 363.648438 332.777344 365.714844 332.980469 C 367.117188 333.113281 368.539062 333 369.957031 333.003906 C 375.101562 333.023438 378.171875 335.148438 378.792969 340.242188 C 379.984375 350.039062 378.324219 359.328125 372.070312 367.335938 C 369.300781 370.875 365.625 372.722656 361.015625 372.507812 C 359.1875 372.425781 357.355469 372.496094 355.523438 372.496094 C 352.285156 372.492188 352.277344 372.488281 353.148438 369.261719 C 354.34375 364.847656 355.550781 360.4375 356.8125 355.828125 Z M 356.8125 355.828125 "/>
</g>
</svg>
